<svg width="268" height="28" viewBox="0 0 268 28" fill="none" xmlns="http://www.w3.org/2000/svg">
<path d="M37.6148 2.27637C38.9909 2.27637 39.2203 3.18695 39.2203 3.64223C39.2203 4.09752 38.9909 5.00807 37.6148 5.00807H31.5369V23.4471C31.5369 24.9268 30.5048 25.2682 29.9314 25.2682C29.358 25.2682 28.3259 24.9268 28.3259 23.4471V5.1219H22.2481C20.8719 5.1219 20.6426 4.21131 20.6426 3.75603C20.6426 3.30074 20.8719 2.3902 22.2481 2.3902L37.6148 2.27637Z" fill="#070707"/>
<path d="M40.8256 17.8697C40.9403 20.4876 43.1192 22.5364 45.7567 22.5364C47.5916 22.5364 48.7383 21.7396 49.6557 20.9429C50.1145 20.6014 50.3438 20.4876 50.6878 20.4876C51.3759 20.4876 51.9493 20.9429 51.9493 21.7396C51.9493 21.9673 51.8346 22.4225 51.4906 22.8778C49.9998 24.3575 48.0503 25.1543 45.6421 25.1543C40.9403 25.1543 37.5 21.9673 37.5 17.1868C37.5 12.4063 40.9403 9.10547 45.4127 9.10547C49.3117 9.10547 52.064 11.2681 52.752 15.4795C52.8667 15.9347 52.8667 16.1624 52.8667 16.5038C52.8667 17.5282 52.2933 18.0973 51.2612 18.0973H40.8256V17.8697ZM49.9998 15.7071C49.8851 13.3169 48.509 11.3819 45.6421 11.3819C43.0045 11.3819 41.055 13.3169 40.8256 15.7071H49.9998Z" fill="#070707"/>
<path d="M66.8572 22.4226C65.7104 24.0161 63.8756 25.0404 61.5821 25.0404C59.1739 25.0404 55.9629 23.9022 55.9629 20.3738C55.9629 15.8209 61.4674 15.2518 66.6279 15.2518V14.7965C66.6279 12.5201 65.1371 11.4957 62.8435 11.4957C61.5821 11.4957 60.4353 11.951 59.1739 12.6339C58.8298 12.8616 58.4858 12.9754 58.2564 12.9754C57.5684 12.9754 57.1097 12.4063 57.1097 11.8372C57.1097 11.3819 57.2243 11.0404 57.7977 10.699C59.1739 9.78839 61.0087 9.10547 63.0729 9.10547C67.5453 9.10547 69.4948 11.7234 69.4948 15.138V23.3331C69.4948 24.699 68.5774 24.9266 68.1187 24.9266C67.66 24.9266 66.7425 24.699 66.7425 23.3331V22.4226H66.8572ZM65.9398 17.4144C62.9582 17.4144 59.0592 17.7559 59.0592 20.26C59.0592 22.0811 60.6647 22.6502 62.1555 22.6502C65.0224 22.6502 66.6279 20.7152 66.6279 18.2112V17.4144H65.9398Z" fill="#070707"/>
<path d="M85.894 21.0572C86.6968 21.0572 87.1555 21.6263 87.1555 22.3093C87.1555 22.7646 87.0408 23.106 86.4674 23.6751C85.3206 24.6995 83.6005 25.1548 81.8803 25.1548C77.1786 25.1548 73.7383 21.9678 73.7383 17.0735C73.7383 12.293 77.1786 8.99219 81.8803 8.99219C83.4858 8.99219 85.206 9.44749 86.3527 10.3581C86.9261 10.8133 87.1555 11.2686 87.1555 11.7239C87.1555 12.5207 86.5821 13.0898 85.7793 13.0898C85.4353 13.0898 85.206 12.9759 84.6326 12.5207C84.0592 12.0654 83.1418 11.6101 81.995 11.6101C78.7841 11.6101 76.9492 14.228 76.9492 17.0735C76.9492 19.919 78.7841 22.5369 81.8803 22.5369C83.1418 22.5369 84.0592 22.1954 84.8619 21.5125C85.3206 21.1711 85.55 21.0572 85.894 21.0572Z" fill="#070707"/>
<path d="M101.376 16.1626C101.376 13.6586 100.688 11.4959 97.9356 11.4959C95.5274 11.4959 93.8072 13.5447 93.8072 16.5041V23.1057C93.8072 24.4716 92.7751 24.813 92.3164 24.813C91.8577 24.813 90.7109 24.5854 90.7109 23.2195V1.70732C90.7109 0.341463 91.743 0 92.2017 0C92.6604 0 93.6925 0.227642 93.6925 1.70732V11.7236H93.8072C94.4953 10.2439 96.4448 8.99186 98.6237 8.99186C102.523 8.99186 104.358 11.8374 104.358 15.1382V23.2195C104.358 24.5854 103.325 24.9268 102.867 24.9268C102.408 24.9268 101.376 24.6992 101.376 23.2195V16.1626Z" fill="#070707"/>
<path d="M131.88 24.9265C131.307 24.9265 130.275 24.6989 130.275 23.1054V8.30868H130.16L123.509 23.4469C122.935 24.6989 122.133 24.9265 121.559 24.9265C120.986 24.9265 120.183 24.6989 119.61 23.4469L112.958 8.42247H112.844V23.2192C112.844 24.6989 111.812 24.9265 111.238 24.9265C110.665 24.9265 109.633 24.6989 109.633 23.2192V3.86963C109.633 2.04849 111.009 1.70703 111.697 1.70703C112.385 1.70703 113.188 1.93468 113.876 3.52818L121.445 20.829H121.559L129.128 3.52818C129.816 1.93468 130.733 1.70703 131.307 1.70703C131.995 1.70703 133.256 2.04849 133.256 3.86963V23.2192C133.371 24.5851 132.339 24.9265 131.88 24.9265Z" fill="#070707"/>
<path d="M140.939 17.8697C141.054 20.4876 143.232 22.5364 145.87 22.5364C147.705 22.5364 148.852 21.7396 149.769 20.9429C150.228 20.6014 150.457 20.4876 150.801 20.4876C151.489 20.4876 152.063 20.9429 152.063 21.7396C152.063 21.9673 151.948 22.4225 151.604 22.8778C150.113 24.3575 148.164 25.1543 145.755 25.1543C141.054 25.1543 137.613 21.9673 137.613 17.1868C137.613 12.4063 141.054 9.10547 145.526 9.10547C149.425 9.10547 152.177 11.2681 152.865 15.4795C152.98 15.9347 152.98 16.1624 152.98 16.5038C152.98 17.5282 152.407 18.0973 151.375 18.0973H140.939V17.8697ZM149.998 15.7071C149.884 13.3169 148.508 11.3819 145.641 11.3819C143.003 11.3819 141.054 13.3169 140.824 15.7071H149.998Z" fill="#070707"/>
<path d="M163.53 22.4227C165.709 22.4227 168.118 21.2845 168.118 18.5528C168.118 15.8211 165.595 15.0243 162.728 14.1137C159.861 13.2032 156.765 11.9512 156.765 7.73977C156.765 3.18693 160.893 1.25195 164.563 1.25195C166.741 1.25195 168.691 1.93488 169.952 2.95927C170.526 3.41455 170.64 3.86985 170.64 4.21131C170.64 5.00806 170.067 5.57714 169.15 5.57714C168.806 5.57714 168.576 5.57715 168.003 5.12186C166.856 4.2113 165.709 3.86983 164.448 3.86983C162.384 3.86983 159.975 5.00805 159.975 7.51212C159.975 10.0162 162.04 10.6991 164.677 11.4959C167.774 12.4064 171.443 13.6584 171.443 18.0975C171.443 22.7641 167.544 25.0406 163.53 25.0406C161.122 25.0406 158.829 24.3576 157.223 22.878C156.65 22.4227 156.535 21.8536 156.535 21.5121C156.535 20.7154 157.109 20.0324 158.026 20.0324C158.37 20.0324 158.714 20.1463 159.173 20.6015C160.549 21.8536 162.04 22.4227 163.53 22.4227Z" fill="#070707"/>
<path d="M179.012 16.7317L178.898 23.2195C178.898 24.5854 177.866 24.9268 177.407 24.9268C176.948 24.9268 175.916 24.6992 175.916 23.2195V1.70732C175.916 0.341463 176.948 0 177.407 0C177.98 0 178.898 0.227642 178.898 1.70732V15.935H179.012L185.893 9.56097C186.352 9.21951 186.696 8.99186 187.04 8.99186C187.842 8.99186 188.531 9.56098 188.531 10.3577C188.531 10.6992 188.416 11.1545 187.842 11.6098L182.567 16.1626L188.645 21.9675C189.219 22.5366 189.219 22.878 189.219 23.2195C189.219 24.0163 188.531 24.6992 187.728 24.6992C187.269 24.6992 186.925 24.5854 186.352 24.0163L179.012 16.7317Z" fill="#070707"/>
<path d="M194.379 5.80448C193.232 5.80448 192.314 4.8939 192.314 3.86951C192.314 2.7313 193.232 1.93457 194.379 1.93457C195.525 1.93457 196.443 2.7313 196.443 3.86951C196.443 5.00772 195.525 5.80448 194.379 5.80448ZM195.984 23.2191C195.984 24.585 194.952 24.9264 194.493 24.9264C193.92 24.9264 193.003 24.6988 193.003 23.2191V10.8126C193.003 9.44675 194.035 9.10529 194.493 9.10529C195.067 9.10529 195.984 9.33293 195.984 10.8126V23.2191Z" fill="#070707"/>
<path d="M201.26 1.70732C201.26 0.341463 202.292 0 202.751 0C203.324 0 204.241 0.227642 204.241 1.70732V23.2195C204.241 24.5854 203.209 24.9268 202.751 24.9268C202.177 24.9268 201.26 24.6992 201.26 23.2195V1.70732Z" fill="#070707"/>
<path d="M209.744 1.70732C209.744 0.341463 210.776 0 211.235 0C211.808 0 212.726 0.227642 212.726 1.70732V23.2195C212.726 24.5854 211.694 24.9268 211.235 24.9268C210.662 24.9268 209.744 24.6992 209.744 23.2195V1.70732Z" fill="#070707"/>
<path d="M222.818 11.3819C221.442 11.3819 219.951 11.951 219.951 13.4307C219.951 14.6827 221.098 15.2518 223.391 15.7071C226.258 16.39 228.552 17.5283 228.552 20.26C228.552 23.9022 225.57 25.1543 222.474 25.1543C220.639 25.1543 218.69 24.5852 217.428 23.4469C216.855 22.9917 216.74 22.5364 216.74 22.1949C216.74 21.3982 217.314 20.8291 218.116 20.8291C218.46 20.8291 218.804 20.9429 219.263 21.2843C220.181 22.0811 221.327 22.6502 222.589 22.6502C224.08 22.6502 225.685 22.0811 225.685 20.4876C225.685 19.1217 224.309 18.5526 221.671 17.9835C219.607 17.5283 217.199 16.6177 217.199 13.7721C217.199 10.4713 220.066 9.10547 223.047 9.10547C224.653 9.10547 226.373 9.56077 227.52 10.5852C228.093 11.0404 228.208 11.4957 228.208 11.8372C228.208 12.5201 227.635 13.203 226.832 13.203C226.488 13.203 226.258 13.0892 225.914 12.7478C224.882 11.7234 223.85 11.3819 222.818 11.3819Z" fill="#070707"/>
<path d="M255.042 26.0652C254.698 26.0652 254.239 25.9514 254.01 25.6099C253.437 25.0408 253.437 24.1303 254.01 23.5612L262.267 15.366L254.01 7.17094C253.437 6.60184 253.437 5.69125 254.01 5.12214C254.584 4.55304 255.501 4.55304 256.074 5.12214L265.363 14.3417C265.593 14.5693 265.822 15.0246 265.822 15.366C265.822 15.7075 265.707 16.1628 265.363 16.3904L256.074 25.6099C255.845 25.8376 255.386 26.0652 255.042 26.0652Z" fill="#FFDA17"/>
<path d="M13.4163 26.0652C13.0723 26.0652 12.6136 25.9514 12.3843 25.6099L3.09542 16.3904C2.86607 16.1628 2.63672 15.7075 2.63672 15.366C2.63672 15.0246 2.75139 14.5693 3.09542 14.3417L12.3843 5.12214C12.9576 4.55304 13.8751 4.55304 14.4485 5.12214C15.0218 5.69125 15.0218 6.60184 14.4485 7.17094L6.19169 15.366L14.4485 23.5612C15.0218 24.1303 15.0218 25.0408 14.4485 25.6099C14.2191 25.8376 13.7604 26.0652 13.4163 26.0652Z" fill="#FFDA17"/>
<path d="M234.973 26.0654C234.629 26.0654 234.399 25.9516 234.17 25.8378C233.482 25.3825 233.367 24.4719 233.826 23.789L246.899 5.35C247.358 4.66707 248.275 4.55323 248.963 5.00852C249.651 5.4638 249.766 6.37439 249.307 7.05732L236.234 25.4963C235.89 25.8378 235.431 26.0654 234.973 26.0654Z" fill="#FFDA17"/>
</svg>
